<?xml version="1.0" encoding="UTF-8" standalone="no"?>
<svg
   xmlns:dc="http://purl.org/dc/elements/1.1/"
   xmlns:cc="http://creativecommons.org/ns#"
   xmlns:rdf="http://www.w3.org/1999/02/22-rdf-syntax-ns#"
   xmlns:svg="http://www.w3.org/2000/svg"
   xmlns="http://www.w3.org/2000/svg"
   xmlns:sodipodi="http://sodipodi.sourceforge.net/DTD/sodipodi-0.dtd"
   xmlns:inkscape="http://www.inkscape.org/namespaces/inkscape"
   width="20.0mm"
   height="20.0mm"
   viewBox="0 0 20.0 20.0"
   version="1.1"
   id="svg8"
   sodipodi:docname="fluxcapacitor.svg"
   inkscape:version="1.0 (4035a4f, 2020-05-01)">
  <defs
     id="defs2">
    <inkscape:path-effect
       only_selected="false"
       apply_with_weight="true"
       apply_no_weight="true"
       helper_size="0"
       steps="2"
       weight="33.333333"
       lpeversion="1"
       is_visible="true"
       id="path-effect1111"
       effect="bspline" />
  </defs>
  <sodipodi:namedview
     inkscape:snap-object-midpoints="true"
     inkscape:snap-global="true"
     inkscape:snap-nodes="false"
     id="base"
     pagecolor="#ffffff"
     bordercolor="#666666"
     borderopacity="1.0"
     inkscape:pageopacity="0.0"
     inkscape:pageshadow="2"
     inkscape:zoom="32"
     inkscape:cx="43.957614"
     inkscape:cy="60.907603"
     inkscape:document-units="mm"
     inkscape:current-layer="g64"
     inkscape:document-rotation="0"
     showgrid="true"
     inkscape:window-width="3440"
     inkscape:window-height="1387"
     inkscape:window-x="1280"
     inkscape:window-y="25"
     inkscape:window-maximized="0">
    <inkscape:grid
       spacingy="0.13229166"
       spacingx="0.13229166"
       id="grid82"
       type="xygrid" />
  </sodipodi:namedview>
  <metadata
     id="metadata5">
    <rdf:RDF>
      <cc:Work
         rdf:about="">
        <dc:format>image/svg+xml</dc:format>
        <dc:type
           rdf:resource="http://purl.org/dc/dcmitype/StillImage" />
        <dc:title></dc:title>
      </cc:Work>
    </rdf:RDF>
  </metadata>
  <g
     id="g52"
     sodipodi:insensitive="true"
     inkscape:groupmode="layer"
     inkscape:label="[fixed] BG"
     style="display:none">
    <rect
       id="rect50"
       style="fill:#ffffff;fill-opacity:1;stroke:none"
       height="20"
       width="20"
       y="0"
       x="0" />
  </g>
  <g
     id="g54"
     inkscape:groupmode="layer"
     inkscape:label="Edge.Cuts" />
  <g
     id="g56"
     inkscape:groupmode="layer"
     inkscape:label="B.Cu" />
  <g
     id="g58"
     inkscape:groupmode="layer"
     inkscape:label="B.Mask" />
  <g
     id="g60"
     inkscape:groupmode="layer"
     inkscape:label="B.SilkS" />
  <g
     id="g62"
     inkscape:groupmode="layer"
     inkscape:label="F.Cu">
    <path
       d="M 2.5632727,2.0171328 A 1.2881356,1.2881356 0 0 0 1.2858313,3.3054262 1.2881356,1.2881356 0 0 0 2.2351274,4.5482444 V 3.9405295 A 0.70330453,0.6863554 0 0 1 1.8708085,3.339016 a 0.70330453,0.6863554 0 0 1 0.692981,-0.6862631 0.70330453,0.6863554 0 0 1 0.010335,0 0.70330453,0.6863554 0 0 1 0.7033164,0.6862631 0.70330453,0.6863554 0 0 1 -0.381372,0.6102985 v 0.603064 A 1.2881356,1.2881356 0 0 0 3.8619014,3.3054262 1.2881356,1.2881356 0 0 0 2.5741247,2.0171328 a 1.2881356,1.2881356 0 0 0 -0.010852,0 z"
       style="fill:#000000;fill-opacity:1;stroke:#000000;stroke-width:0.1"
       id="path1080" />
    <path
       sodipodi:nodetypes="ccccccscscccccc"
       d="M 2.5653398,2.911135 C 2.3243075,2.9112511 2.1290213,3.1067687 2.1291907,3.3478009 2.1294711,3.543305 2.2597531,3.7147624 2.4480343,3.7674134 v 0.8046022 h 0.058394 v 1.4650267 c 8.652e-4,0.2092928 0.00397,0.045412 0.00103,0.1271244 -0.00505,0.1403262 0.4773347,0.1012878 0.4898926,0.1012856 0.012557,3e-6 -0.3480244,0.017791 -0.3617351,-0.1219562 -0.00206,-0.021071 -0.00775,-0.063404 -0.0031,-0.108004 V 4.5720156 h 0.046509 V 3.7689639 C 2.8695038,3.7177112 3.0019116,3.5450513 3.002006,3.3478009 3.0021756,3.1065669 2.8065742,2.9109656 2.5653402,2.911135 Z"
       style="fill:#000000;fill-opacity:1;stroke:#000000;stroke-width:0.125586"
       id="path1096" />
    <path
       id="path1080-1"
       style="fill:#000000;fill-opacity:1;stroke:#000000;stroke-width:0.1"
       d="m 17.286041,1.9732817 a 1.2881356,1.2881356 0 0 1 1.277441,1.2882935 1.2881356,1.2881356 0 0 1 -0.949296,1.2428182 V 3.8966785 a 0.70330454,0.68635541 0 0 0 0.364319,-0.6015135 0.70330454,0.68635541 0 0 0 -0.692981,-0.6862632 0.70330454,0.68635541 0 0 0 -0.01033,0 0.70330454,0.68635541 0 0 0 -0.703317,0.6862632 0.70330454,0.68635541 0 0 0 0.381372,0.6102985 v 0.603064 a 1.2881356,1.2881356 0 0 1 -0.965832,-1.2469523 1.2881356,1.2881356 0 0 1 1.287777,-1.2882935 1.2881356,1.2881356 0 0 1 0.01085,0 z" />
    <path
       id="path1096-7"
       style="fill:#000000;fill-opacity:1;stroke:#000000;stroke-width:0.125586"
       d="m 17.283974,2.867284 c 0.241032,1.161e-4 0.436318,0.1956337 0.436149,0.436666 -2.81e-4,0.195504 -0.130563,0.3669614 -0.318844,0.4196125 v 0.8046021 h -0.05839 v 1.4650268 c -8.65e-4,0.2092928 -0.004,0.045412 -0.001,0.1271244 0.0051,0.1403262 -0.477335,0.1012878 -0.489893,0.1012856 -0.01256,2.9e-6 0.348025,0.017791 0.361736,-0.1219562 0.0021,-0.021071 0.0077,-0.063404 0.0031,-0.108004 V 4.5281646 h -0.04651 V 3.7251129 C 16.979843,3.6738599 16.847435,3.5012003 16.84734,3.30395 16.847171,3.0627159 17.042772,2.8671145 17.284007,2.867284 Z"
       sodipodi:nodetypes="ccccccscscccccc" />
    <path
       id="path1080-3"
       style="fill:#000000;fill-opacity:1;stroke:#000000;stroke-width:0.1"
       d="m 8.8083026,16.962168 a 1.2881356,1.2881356 0 0 0 1.2696374,1.295985 1.2881356,1.2881356 0 0 0 1.256451,-0.931178 l -0.607651,-0.0088 a 0.68635541,0.70330454 0.83072355 0 1 -0.606733,0.35556 0.68635541,0.70330454 0.83072355 0 1 -0.6761437,-0.702858 0.68635541,0.70330454 0.83072355 0 1 1.498e-4,-0.01033 0.68635541,0.70330454 0.83072355 0 1 0.6963879,-0.693292 0.68635541,0.70330454 0.83072355 0 1 0.604706,0.39018 l 0.603,0.0087 a 1.2881356,1.2881356 0 0 0 -1.232819,-0.98381 1.2881356,1.2881356 0 0 0 -1.3068281,1.268964 1.2881356,1.2881356 0 0 0 -1.573e-4,0.01085 z" />
    <path
       id="path1096-71"
       style="fill:#000000;fill-opacity:1;stroke:#000000;stroke-width:0.125586"
       d="m 9.7022407,16.973062 c -0.0034,0.241009 0.189287,0.439109 0.4302973,0.442434 0.195487,0.0026 0.368816,-0.125228 0.424191,-0.312726 l 0.804517,0.01167 8.47e-4,-0.05838 1.464872,0.02124 c 0.209284,0.0022 0.04546,-0.0033 0.127126,8.43e-4 0.140239,0.007 0.108198,-0.475816 0.108377,-0.488372 1.86e-4,-0.01256 0.01274,0.348245 -0.127188,0.359929 -0.0211,0.0018 -0.0635,0.0068 -0.108037,0.0015 l -1.463322,-0.02122 6.74e-4,-0.0465 -0.802968,-0.01164 c -0.04848,-0.191183 -0.219208,-0.32608 -0.416435,-0.329035 -0.2412073,-0.0037 -0.4396233,0.189078 -0.4429523,0.430289 z"
       sodipodi:nodetypes="ccccccscscccccc" />
  </g>
  <g
     style="display:inline"
     id="g64"
     inkscape:groupmode="layer"
     inkscape:label="F.Mask">
    <path
       id="path1080-2"
       style="fill:#000000;fill-opacity:1;stroke:#000000;stroke-width:0.1"
       d="M 2.5632727,2.0171326 A 1.2881356,1.2881356 0 0 0 1.2858313,3.305426 1.2881356,1.2881356 0 0 0 2.2351274,4.5482442 V 3.9405294 a 0.70330454,0.68635541 0 0 1 -0.3643189,-0.6015136 0.70330454,0.68635541 0 0 1 0.692981,-0.686263 0.70330454,0.68635541 0 0 1 0.010335,0 0.70330454,0.68635541 0 0 1 0.7033164,0.686263 0.70330454,0.68635541 0 0 1 -0.381372,0.6102985 V 4.5523784 A 1.2881356,1.2881356 0 0 0 3.8619014,3.305426 1.2881356,1.2881356 0 0 0 2.5741247,2.0171326 a 1.2881356,1.2881356 0 0 0 -0.010852,0 z" />
    <path
       id="path1096-4"
       style="fill:#000000;fill-opacity:1;stroke:#000000;stroke-width:0.125586"
       d="M 2.5653398,2.9111349 C 2.3243075,2.911251 2.1290213,3.1067685 2.1291907,3.3478007 2.1294712,3.5433048 2.2597531,3.7147622 2.4480343,3.7674132 v 0.8046022 h 0.058394 V 6.037042 c 8.652e-4,0.2092929 0.00397,0.045412 0.00103,0.1271247 -0.00505,0.140326 0.4773347,0.1012878 0.4898926,0.1012854 0.012557,3.1e-6 -0.3480244,0.017791 -0.3617351,-0.121956 -0.00206,-0.021071 -0.00775,-0.063404 -0.0031,-0.1080042 V 4.5720154 h 0.046509 V 3.7689638 C 2.8695038,3.7177111 3.0019116,3.5450511 3.002006,3.3478007 3.0021756,3.1065667 2.8065742,2.9109655 2.5653402,2.9111349 Z"
       sodipodi:nodetypes="ccccccscscccccc" />
    <path
       d="m 17.286041,1.9732817 a 1.2881356,1.2881356 0 0 1 1.277441,1.2882935 1.2881356,1.2881356 0 0 1 -0.949296,1.2428182 V 3.8966785 a 0.70330454,0.68635541 0 0 0 0.364319,-0.6015135 0.70330454,0.68635541 0 0 0 -0.692981,-0.6862632 0.70330454,0.68635541 0 0 0 -0.01033,0 0.70330454,0.68635541 0 0 0 -0.703317,0.6862632 0.70330454,0.68635541 0 0 0 0.381372,0.6102985 v 0.603064 a 1.2881356,1.2881356 0 0 1 -0.965832,-1.2469523 1.2881356,1.2881356 0 0 1 1.287777,-1.2882935 1.2881356,1.2881356 0 0 1 0.01085,0 z"
       style="fill:#000000;fill-opacity:1;stroke:#000000;stroke-width:0.1"
       id="path1344" />
    <path
       sodipodi:nodetypes="ccccccscscccccc"
       d="m 17.283974,2.867284 c 0.241032,1.161e-4 0.436318,0.1956337 0.436149,0.436666 -2.81e-4,0.195504 -0.130563,0.3669614 -0.318844,0.4196125 v 0.8046021 h -0.05839 v 1.4650268 c -8.65e-4,0.2092928 -0.004,0.045412 -0.001,0.1271244 0.0051,0.1403262 -0.477335,0.1012878 -0.489893,0.1012856 -0.01256,2.9e-6 0.348025,0.017791 0.361736,-0.1219562 0.0021,-0.021071 0.0077,-0.063404 0.0031,-0.108004 V 4.5281646 h -0.04651 V 3.7251129 C 16.979843,3.6738599 16.847435,3.5012003 16.84734,3.30395 16.847171,3.0627159 17.042772,2.8671145 17.284007,2.867284 Z"
       style="fill:#000000;fill-opacity:1;stroke:#000000;stroke-width:0.125586"
       id="path1346" />
    <path
       d="m 8.8083026,16.962168 a 1.2881356,1.2881356 0 0 0 1.2696374,1.295985 1.2881356,1.2881356 0 0 0 1.256451,-0.931178 l -0.607651,-0.0088 a 0.68635541,0.70330454 0.83072355 0 1 -0.606733,0.35556 0.68635541,0.70330454 0.83072355 0 1 -0.6761437,-0.702858 0.68635541,0.70330454 0.83072355 0 1 1.498e-4,-0.01033 0.68635541,0.70330454 0.83072355 0 1 0.6963879,-0.693292 0.68635541,0.70330454 0.83072355 0 1 0.604706,0.39018 l 0.603,0.0087 a 1.2881356,1.2881356 0 0 0 -1.232819,-0.98381 1.2881356,1.2881356 0 0 0 -1.3068281,1.268964 1.2881356,1.2881356 0 0 0 -1.573e-4,0.01085 z"
       style="fill:#000000;fill-opacity:1;stroke:#000000;stroke-width:0.1"
       id="path1350" />
    <path
       sodipodi:nodetypes="ccccccscscccccc"
       d="m 9.7022407,16.973062 c -0.0034,0.241009 0.189287,0.439109 0.4302973,0.442434 0.195487,0.0026 0.368816,-0.125228 0.424191,-0.312726 l 0.804517,0.01167 8.47e-4,-0.05838 1.464872,0.02124 c 0.209284,0.0022 0.04546,-0.0033 0.127126,8.43e-4 0.140239,0.007 0.108198,-0.475816 0.108377,-0.488372 1.86e-4,-0.01256 0.01274,0.348245 -0.127188,0.359929 -0.0211,0.0018 -0.0635,0.0068 -0.108037,0.0015 l -1.463322,-0.02122 6.74e-4,-0.0465 -0.802968,-0.01164 c -0.04848,-0.191183 -0.219208,-0.32608 -0.416435,-0.329035 -0.2412073,-0.0037 -0.4396233,0.189078 -0.4429523,0.430289 z"
       style="fill:#000000;fill-opacity:1;stroke:#000000;stroke-width:0.125586"
       id="path1352" />
  </g>
  <g
     id="g66"
     inkscape:groupmode="layer"
     inkscape:label="F.SilkS">
    <path
       transform="scale(0.26458333)"
       d="M 59.373047 13.75 L 38.050781 30.283203 L 15.193359 14.162109 L 14.621094 15.365234 L 37.339844 31.388672 L 37.339844 58.347656 L 38.660156 58.347656 L 38.660156 31.445312 L 60.121094 14.804688 L 59.373047 13.75 z "
       style="fill:#000000;fill-opacity:1;stroke:#000000;stroke-width:0.176371"
       id="rect1233-5" />
  </g>
  <g
     id="g68"
     inkscape:groupmode="layer"
     inkscape:label="Dwgs.User" />
  <g
     id="g70"
     inkscape:groupmode="layer"
     inkscape:label="Drill" />
</svg>
