%TF.GenerationSoftware,KiCad,Pcbnew,(6.0.7-1)-1*%
%TF.CreationDate,2022-10-05T00:05:41-06:00*%
%TF.ProjectId,FluxCapacitor,466c7578-4361-4706-9163-69746f722e6b,rev?*%
%TF.SameCoordinates,Original*%
%TF.FileFunction,Soldermask,Top*%
%TF.FilePolarity,Negative*%
%FSLAX46Y46*%
G04 Gerber Fmt 4.6, Leading zero omitted, Abs format (unit mm)*
G04 Created by KiCad (PCBNEW (6.0.7-1)-1) date 2022-10-05 00:05:41*
%MOMM*%
%LPD*%
G01*
G04 APERTURE LIST*
G04 Aperture macros list*
%AMRoundRect*
0 Rectangle with rounded corners*
0 $1 Rounding radius*
0 $2 $3 $4 $5 $6 $7 $8 $9 X,Y pos of 4 corners*
0 Add a 4 corners polygon primitive as box body*
4,1,4,$2,$3,$4,$5,$6,$7,$8,$9,$2,$3,0*
0 Add four circle primitives for the rounded corners*
1,1,$1+$1,$2,$3*
1,1,$1+$1,$4,$5*
1,1,$1+$1,$6,$7*
1,1,$1+$1,$8,$9*
0 Add four rect primitives between the rounded corners*
20,1,$1+$1,$2,$3,$4,$5,0*
20,1,$1+$1,$4,$5,$6,$7,0*
20,1,$1+$1,$6,$7,$8,$9,0*
20,1,$1+$1,$8,$9,$2,$3,0*%
G04 Aperture macros list end*
%ADD10C,0.010000*%
%ADD11RoundRect,0.160000X0.160000X-0.222500X0.160000X0.222500X-0.160000X0.222500X-0.160000X-0.222500X0*%
%ADD12RoundRect,0.160000X-0.222500X-0.160000X0.222500X-0.160000X0.222500X0.160000X-0.222500X0.160000X0*%
%ADD13R,1.778000X1.778000*%
%ADD14C,1.778000*%
G04 APERTURE END LIST*
%TO.C,Ref\u002A\u002A*%
G36*
X114515210Y-85420569D02*
G01*
X114686224Y-85517164D01*
X114800942Y-85666951D01*
X114849396Y-85860766D01*
X114850334Y-85894334D01*
X114823086Y-86054377D01*
X114752626Y-86203276D01*
X114655875Y-86307235D01*
X114638229Y-86317901D01*
X114599430Y-86346904D01*
X114531000Y-86395144D01*
X114521000Y-86483000D01*
X114521000Y-87133000D01*
X114521346Y-87197875D01*
X114521000Y-87206667D01*
X114521000Y-87373000D01*
X114511000Y-87573000D01*
X114501000Y-87827374D01*
X114491000Y-88012048D01*
X114469334Y-88817429D01*
X114360744Y-88858715D01*
X114254849Y-88883906D01*
X114120273Y-88897277D01*
X113988440Y-88898005D01*
X113890774Y-88885264D01*
X113862556Y-88871778D01*
X113831496Y-88801653D01*
X113871845Y-88747593D01*
X113950750Y-88730019D01*
X114019923Y-88728992D01*
X114073997Y-88720664D01*
X114114548Y-88695869D01*
X114143147Y-88645442D01*
X114161370Y-88560218D01*
X114170789Y-88431031D01*
X114172978Y-88248718D01*
X114169510Y-88004112D01*
X114161960Y-87688048D01*
X114157758Y-87524315D01*
X114128832Y-86394917D01*
X113981583Y-86256044D01*
X113892487Y-86161897D01*
X113848873Y-86074667D01*
X113835044Y-85955939D01*
X113834334Y-85895685D01*
X113841603Y-85753336D01*
X113873807Y-85655549D01*
X113946540Y-85562734D01*
X113978267Y-85530267D01*
X114089309Y-85435580D01*
X114194929Y-85393845D01*
X114297869Y-85386334D01*
X114515210Y-85420569D01*
G37*
D10*
X114515210Y-85420569D02*
X114686224Y-85517164D01*
X114800942Y-85666951D01*
X114849396Y-85860766D01*
X114850334Y-85894334D01*
X114823086Y-86054377D01*
X114752626Y-86203276D01*
X114655875Y-86307235D01*
X114638229Y-86317901D01*
X114599430Y-86346904D01*
X114531000Y-86395144D01*
X114521000Y-86483000D01*
X114521000Y-87133000D01*
X114521346Y-87197875D01*
X114521000Y-87206667D01*
X114521000Y-87373000D01*
X114511000Y-87573000D01*
X114501000Y-87827374D01*
X114491000Y-88012048D01*
X114469334Y-88817429D01*
X114360744Y-88858715D01*
X114254849Y-88883906D01*
X114120273Y-88897277D01*
X113988440Y-88898005D01*
X113890774Y-88885264D01*
X113862556Y-88871778D01*
X113831496Y-88801653D01*
X113871845Y-88747593D01*
X113950750Y-88730019D01*
X114019923Y-88728992D01*
X114073997Y-88720664D01*
X114114548Y-88695869D01*
X114143147Y-88645442D01*
X114161370Y-88560218D01*
X114170789Y-88431031D01*
X114172978Y-88248718D01*
X114169510Y-88004112D01*
X114161960Y-87688048D01*
X114157758Y-87524315D01*
X114128832Y-86394917D01*
X113981583Y-86256044D01*
X113892487Y-86161897D01*
X113848873Y-86074667D01*
X113835044Y-85955939D01*
X113834334Y-85895685D01*
X113841603Y-85753336D01*
X113873807Y-85655549D01*
X113946540Y-85562734D01*
X113978267Y-85530267D01*
X114089309Y-85435580D01*
X114194929Y-85393845D01*
X114297869Y-85386334D01*
X114515210Y-85420569D01*
G36*
X107314858Y-99086778D02*
G01*
X107424187Y-99162043D01*
X107469584Y-99205195D01*
X107543023Y-99274135D01*
X107587256Y-99343000D01*
X107657256Y-99383000D01*
X107817256Y-99383000D01*
X108017256Y-99393000D01*
X108182183Y-99393000D01*
X108419715Y-99394941D01*
X108693482Y-99402792D01*
X108979266Y-99408791D01*
X109157423Y-99411322D01*
X109919423Y-99419834D01*
X109940590Y-99272147D01*
X109978598Y-99153225D01*
X110035840Y-99110293D01*
X110077612Y-99113508D01*
X110100100Y-99155343D01*
X110108894Y-99253522D01*
X110109923Y-99345138D01*
X110101276Y-99492007D01*
X110078959Y-99610524D01*
X110057006Y-99660711D01*
X110030604Y-99680743D01*
X109980432Y-99697124D01*
X109897377Y-99710530D01*
X109772324Y-99721635D01*
X109596159Y-99731115D01*
X109359768Y-99739645D01*
X109054038Y-99747899D01*
X108801407Y-99753710D01*
X108450148Y-99761712D01*
X108177256Y-99763000D01*
X107617256Y-99763000D01*
X107577256Y-99823000D01*
X107554050Y-99846530D01*
X107539420Y-99864816D01*
X107407323Y-99985575D01*
X107231504Y-100055818D01*
X107041495Y-100067482D01*
X106913756Y-100035613D01*
X106761251Y-99934970D01*
X106662567Y-99793536D01*
X106615826Y-99628640D01*
X106619151Y-99457612D01*
X106670664Y-99297782D01*
X106768488Y-99166480D01*
X106910746Y-99081035D01*
X107019590Y-99058753D01*
X107191204Y-99055997D01*
X107314858Y-99086778D01*
G37*
X107314858Y-99086778D02*
X107424187Y-99162043D01*
X107469584Y-99205195D01*
X107543023Y-99274135D01*
X107587256Y-99343000D01*
X107657256Y-99383000D01*
X107817256Y-99383000D01*
X108017256Y-99393000D01*
X108182183Y-99393000D01*
X108419715Y-99394941D01*
X108693482Y-99402792D01*
X108979266Y-99408791D01*
X109157423Y-99411322D01*
X109919423Y-99419834D01*
X109940590Y-99272147D01*
X109978598Y-99153225D01*
X110035840Y-99110293D01*
X110077612Y-99113508D01*
X110100100Y-99155343D01*
X110108894Y-99253522D01*
X110109923Y-99345138D01*
X110101276Y-99492007D01*
X110078959Y-99610524D01*
X110057006Y-99660711D01*
X110030604Y-99680743D01*
X109980432Y-99697124D01*
X109897377Y-99710530D01*
X109772324Y-99721635D01*
X109596159Y-99731115D01*
X109359768Y-99739645D01*
X109054038Y-99747899D01*
X108801407Y-99753710D01*
X108450148Y-99761712D01*
X108177256Y-99763000D01*
X107617256Y-99763000D01*
X107577256Y-99823000D01*
X107554050Y-99846530D01*
X107539420Y-99864816D01*
X107407323Y-99985575D01*
X107231504Y-100055818D01*
X107041495Y-100067482D01*
X106913756Y-100035613D01*
X106761251Y-99934970D01*
X106662567Y-99793536D01*
X106615826Y-99628640D01*
X106619151Y-99457612D01*
X106670664Y-99297782D01*
X106768488Y-99166480D01*
X106910746Y-99081035D01*
X107019590Y-99058753D01*
X107191204Y-99055997D01*
X107314858Y-99086778D01*
G36*
X99769537Y-85440744D02*
G01*
X99876733Y-85488468D01*
X99981372Y-85573581D01*
X100077076Y-85670446D01*
X100123783Y-85756496D01*
X100138636Y-85871097D01*
X100139500Y-85936667D01*
X100132863Y-86074792D01*
X100101518Y-86167959D01*
X100028314Y-86255540D01*
X99981320Y-86299800D01*
X99823140Y-86444762D01*
X99794696Y-87585224D01*
X99766252Y-88725687D01*
X99868209Y-88747695D01*
X99986410Y-88770925D01*
X100054834Y-88782515D01*
X100123763Y-88819439D01*
X100139500Y-88858247D01*
X100102004Y-88899104D01*
X100006719Y-88925042D01*
X99879450Y-88934577D01*
X99746002Y-88926226D01*
X99632179Y-88898508D01*
X99610334Y-88888648D01*
X99504500Y-88834162D01*
X99472141Y-87636169D01*
X99439781Y-86438175D01*
X99316217Y-86334202D01*
X99187942Y-86180144D01*
X99129417Y-86006828D01*
X99134812Y-85830792D01*
X99198298Y-85668575D01*
X99314047Y-85536717D01*
X99476228Y-85451756D01*
X99635370Y-85428667D01*
X99769537Y-85440744D01*
G37*
X99769537Y-85440744D02*
X99876733Y-85488468D01*
X99981372Y-85573581D01*
X100077076Y-85670446D01*
X100123783Y-85756496D01*
X100138636Y-85871097D01*
X100139500Y-85936667D01*
X100132863Y-86074792D01*
X100101518Y-86167959D01*
X100028314Y-86255540D01*
X99981320Y-86299800D01*
X99823140Y-86444762D01*
X99794696Y-87585224D01*
X99766252Y-88725687D01*
X99868209Y-88747695D01*
X99986410Y-88770925D01*
X100054834Y-88782515D01*
X100123763Y-88819439D01*
X100139500Y-88858247D01*
X100102004Y-88899104D01*
X100006719Y-88925042D01*
X99879450Y-88934577D01*
X99746002Y-88926226D01*
X99632179Y-88898508D01*
X99610334Y-88888648D01*
X99504500Y-88834162D01*
X99472141Y-87636169D01*
X99439781Y-86438175D01*
X99316217Y-86334202D01*
X99187942Y-86180144D01*
X99129417Y-86006828D01*
X99134812Y-85830792D01*
X99198298Y-85668575D01*
X99314047Y-85536717D01*
X99476228Y-85451756D01*
X99635370Y-85428667D01*
X99769537Y-85440744D01*
G36*
X114668266Y-84543438D02*
G01*
X114945011Y-84647224D01*
X115196460Y-84812904D01*
X115411093Y-85040199D01*
X115562239Y-85294998D01*
X115627387Y-85458943D01*
X115661472Y-85617531D01*
X115672635Y-85811729D01*
X115672839Y-85851595D01*
X115634050Y-86192569D01*
X115520143Y-86497194D01*
X115334805Y-86759438D01*
X115081724Y-86973271D01*
X114934992Y-87058099D01*
X114780362Y-87132602D01*
X114681802Y-87160754D01*
X114621000Y-87132595D01*
X114611000Y-87042595D01*
X114611000Y-86642595D01*
X114621000Y-86534189D01*
X114631783Y-86459781D01*
X114691000Y-86412595D01*
X114761000Y-86352595D01*
X114901000Y-86182595D01*
X114943131Y-85981267D01*
X114943644Y-85794810D01*
X114887841Y-85619816D01*
X114783862Y-85468603D01*
X114639850Y-85353488D01*
X114463945Y-85286789D01*
X114264288Y-85280822D01*
X114076790Y-85334977D01*
X113896150Y-85454919D01*
X113775573Y-85617256D01*
X113716654Y-85804622D01*
X113720988Y-85999648D01*
X113790170Y-86184966D01*
X113925797Y-86343210D01*
X113980479Y-86383330D01*
X114033389Y-86423772D01*
X114051000Y-86473490D01*
X114051000Y-87112595D01*
X114023537Y-87160834D01*
X113942145Y-87154780D01*
X113811486Y-87103445D01*
X113765034Y-87082543D01*
X113528932Y-86937725D01*
X113311730Y-86735701D01*
X113141624Y-86503421D01*
X113122165Y-86468115D01*
X113067418Y-86353998D01*
X113033698Y-86247774D01*
X112991000Y-86132595D01*
X112971000Y-85972595D01*
X112961000Y-85822595D01*
X112971000Y-85672595D01*
X112991000Y-85502595D01*
X113021000Y-85382595D01*
X113061000Y-85282595D01*
X113151000Y-85122595D01*
X113291000Y-84942595D01*
X113538710Y-84752792D01*
X113801445Y-84606222D01*
X114084963Y-84522659D01*
X114377743Y-84501823D01*
X114668266Y-84543438D01*
G37*
X114668266Y-84543438D02*
X114945011Y-84647224D01*
X115196460Y-84812904D01*
X115411093Y-85040199D01*
X115562239Y-85294998D01*
X115627387Y-85458943D01*
X115661472Y-85617531D01*
X115672635Y-85811729D01*
X115672839Y-85851595D01*
X115634050Y-86192569D01*
X115520143Y-86497194D01*
X115334805Y-86759438D01*
X115081724Y-86973271D01*
X114934992Y-87058099D01*
X114780362Y-87132602D01*
X114681802Y-87160754D01*
X114621000Y-87132595D01*
X114611000Y-87042595D01*
X114611000Y-86642595D01*
X114621000Y-86534189D01*
X114631783Y-86459781D01*
X114691000Y-86412595D01*
X114761000Y-86352595D01*
X114901000Y-86182595D01*
X114943131Y-85981267D01*
X114943644Y-85794810D01*
X114887841Y-85619816D01*
X114783862Y-85468603D01*
X114639850Y-85353488D01*
X114463945Y-85286789D01*
X114264288Y-85280822D01*
X114076790Y-85334977D01*
X113896150Y-85454919D01*
X113775573Y-85617256D01*
X113716654Y-85804622D01*
X113720988Y-85999648D01*
X113790170Y-86184966D01*
X113925797Y-86343210D01*
X113980479Y-86383330D01*
X114033389Y-86423772D01*
X114051000Y-86473490D01*
X114051000Y-87112595D01*
X114023537Y-87160834D01*
X113942145Y-87154780D01*
X113811486Y-87103445D01*
X113765034Y-87082543D01*
X113528932Y-86937725D01*
X113311730Y-86735701D01*
X113141624Y-86503421D01*
X113122165Y-86468115D01*
X113067418Y-86353998D01*
X113033698Y-86247774D01*
X112991000Y-86132595D01*
X112971000Y-85972595D01*
X112961000Y-85822595D01*
X112971000Y-85672595D01*
X112991000Y-85502595D01*
X113021000Y-85382595D01*
X113061000Y-85282595D01*
X113151000Y-85122595D01*
X113291000Y-84942595D01*
X113538710Y-84752792D01*
X113801445Y-84606222D01*
X114084963Y-84522659D01*
X114377743Y-84501823D01*
X114668266Y-84543438D01*
G36*
X99977614Y-84586406D02*
G01*
X100254182Y-84689653D01*
X100505012Y-84855337D01*
X100718413Y-85083464D01*
X100837443Y-85276731D01*
X100916578Y-85442490D01*
X100961071Y-85575574D01*
X100980405Y-85715567D01*
X100984112Y-85888971D01*
X100975738Y-86094416D01*
X100946719Y-86256184D01*
X100889110Y-86414304D01*
X100872572Y-86450931D01*
X100704618Y-86726179D01*
X100483258Y-86954064D01*
X100233425Y-87113203D01*
X100084696Y-87179638D01*
X99989717Y-87203607D01*
X99936443Y-87175397D01*
X99912830Y-87085296D01*
X99906833Y-86923591D01*
X99906667Y-86849716D01*
X99908124Y-86674652D01*
X99916426Y-86563043D01*
X99937466Y-86493684D01*
X99977139Y-86445368D01*
X100030370Y-86404681D01*
X100171075Y-86257144D01*
X100247680Y-86073598D01*
X100259597Y-85874025D01*
X100206236Y-85678407D01*
X100087008Y-85506724D01*
X100057667Y-85479167D01*
X99862810Y-85355514D01*
X99656595Y-85315655D01*
X99441216Y-85359867D01*
X99368989Y-85392702D01*
X99188117Y-85526057D01*
X99071470Y-85696510D01*
X99021005Y-85887647D01*
X99038678Y-86083053D01*
X99126444Y-86266314D01*
X99249654Y-86394105D01*
X99301605Y-86441286D01*
X99333270Y-86496458D01*
X99349620Y-86580504D01*
X99355624Y-86714304D01*
X99356334Y-86842343D01*
X99354272Y-87029804D01*
X99340958Y-87143369D01*
X99305698Y-87193806D01*
X99237799Y-87191884D01*
X99126568Y-87148369D01*
X99075367Y-87125282D01*
X98839266Y-86980463D01*
X98622063Y-86778439D01*
X98451957Y-86546160D01*
X98432498Y-86510853D01*
X98377751Y-86396737D01*
X98344031Y-86290512D01*
X98311000Y-86165433D01*
X98291000Y-86003000D01*
X98291000Y-85894334D01*
X98301000Y-85693923D01*
X98334291Y-85551333D01*
X98360036Y-85439816D01*
X98404571Y-85332622D01*
X98432498Y-85277814D01*
X98617949Y-85006547D01*
X98847818Y-84797686D01*
X99110411Y-84651237D01*
X99394036Y-84567203D01*
X99687001Y-84545591D01*
X99977614Y-84586406D01*
G37*
X99977614Y-84586406D02*
X100254182Y-84689653D01*
X100505012Y-84855337D01*
X100718413Y-85083464D01*
X100837443Y-85276731D01*
X100916578Y-85442490D01*
X100961071Y-85575574D01*
X100980405Y-85715567D01*
X100984112Y-85888971D01*
X100975738Y-86094416D01*
X100946719Y-86256184D01*
X100889110Y-86414304D01*
X100872572Y-86450931D01*
X100704618Y-86726179D01*
X100483258Y-86954064D01*
X100233425Y-87113203D01*
X100084696Y-87179638D01*
X99989717Y-87203607D01*
X99936443Y-87175397D01*
X99912830Y-87085296D01*
X99906833Y-86923591D01*
X99906667Y-86849716D01*
X99908124Y-86674652D01*
X99916426Y-86563043D01*
X99937466Y-86493684D01*
X99977139Y-86445368D01*
X100030370Y-86404681D01*
X100171075Y-86257144D01*
X100247680Y-86073598D01*
X100259597Y-85874025D01*
X100206236Y-85678407D01*
X100087008Y-85506724D01*
X100057667Y-85479167D01*
X99862810Y-85355514D01*
X99656595Y-85315655D01*
X99441216Y-85359867D01*
X99368989Y-85392702D01*
X99188117Y-85526057D01*
X99071470Y-85696510D01*
X99021005Y-85887647D01*
X99038678Y-86083053D01*
X99126444Y-86266314D01*
X99249654Y-86394105D01*
X99301605Y-86441286D01*
X99333270Y-86496458D01*
X99349620Y-86580504D01*
X99355624Y-86714304D01*
X99356334Y-86842343D01*
X99354272Y-87029804D01*
X99340958Y-87143369D01*
X99305698Y-87193806D01*
X99237799Y-87191884D01*
X99126568Y-87148369D01*
X99075367Y-87125282D01*
X98839266Y-86980463D01*
X98622063Y-86778439D01*
X98451957Y-86546160D01*
X98432498Y-86510853D01*
X98377751Y-86396737D01*
X98344031Y-86290512D01*
X98311000Y-86165433D01*
X98291000Y-86003000D01*
X98291000Y-85894334D01*
X98301000Y-85693923D01*
X98334291Y-85551333D01*
X98360036Y-85439816D01*
X98404571Y-85332622D01*
X98432498Y-85277814D01*
X98617949Y-85006547D01*
X98847818Y-84797686D01*
X99110411Y-84651237D01*
X99394036Y-84567203D01*
X99687001Y-84545591D01*
X99977614Y-84586406D01*
G36*
X107391572Y-98246997D02*
G01*
X107627524Y-98327712D01*
X107883936Y-98483911D01*
X108106101Y-98694118D01*
X108273650Y-98937108D01*
X108328194Y-99057816D01*
X108374956Y-99185869D01*
X108406621Y-99278457D01*
X108415443Y-99310588D01*
X108376109Y-99309166D01*
X107747919Y-99309166D01*
X107681575Y-99304013D01*
X107643883Y-99271189D01*
X107618768Y-99224236D01*
X107517472Y-99095507D01*
X107358807Y-99000646D01*
X107167501Y-98952822D01*
X107103109Y-98949603D01*
X106882487Y-98986969D01*
X106704958Y-99092267D01*
X106579929Y-99255749D01*
X106516807Y-99467670D01*
X106511000Y-99563000D01*
X106546957Y-99791436D01*
X106648553Y-99975300D01*
X106806382Y-100104845D01*
X107011035Y-100170325D01*
X107103109Y-100176396D01*
X107294612Y-100147646D01*
X107465874Y-100070312D01*
X107589186Y-99958132D01*
X107609897Y-99925098D01*
X107646109Y-99889166D01*
X107696109Y-99869166D01*
X108386109Y-99869166D01*
X108367048Y-99964798D01*
X108326561Y-100078980D01*
X108311776Y-100114676D01*
X108154763Y-100385514D01*
X107937210Y-100607464D01*
X107672099Y-100773622D01*
X107372414Y-100877086D01*
X107051137Y-100910954D01*
X106846214Y-100893881D01*
X106547767Y-100805854D01*
X106271512Y-100646260D01*
X106034099Y-100428015D01*
X105852175Y-100164035D01*
X105819542Y-100097348D01*
X105755102Y-99880773D01*
X105728872Y-99622237D01*
X105740715Y-99355265D01*
X105790493Y-99113380D01*
X105823929Y-99024532D01*
X105990979Y-98748605D01*
X106213675Y-98524275D01*
X106478550Y-98356746D01*
X106772136Y-98251222D01*
X107080965Y-98212904D01*
X107391572Y-98246997D01*
G37*
X107391572Y-98246997D02*
X107627524Y-98327712D01*
X107883936Y-98483911D01*
X108106101Y-98694118D01*
X108273650Y-98937108D01*
X108328194Y-99057816D01*
X108374956Y-99185869D01*
X108406621Y-99278457D01*
X108415443Y-99310588D01*
X108376109Y-99309166D01*
X107747919Y-99309166D01*
X107681575Y-99304013D01*
X107643883Y-99271189D01*
X107618768Y-99224236D01*
X107517472Y-99095507D01*
X107358807Y-99000646D01*
X107167501Y-98952822D01*
X107103109Y-98949603D01*
X106882487Y-98986969D01*
X106704958Y-99092267D01*
X106579929Y-99255749D01*
X106516807Y-99467670D01*
X106511000Y-99563000D01*
X106546957Y-99791436D01*
X106648553Y-99975300D01*
X106806382Y-100104845D01*
X107011035Y-100170325D01*
X107103109Y-100176396D01*
X107294612Y-100147646D01*
X107465874Y-100070312D01*
X107589186Y-99958132D01*
X107609897Y-99925098D01*
X107646109Y-99889166D01*
X107696109Y-99869166D01*
X108386109Y-99869166D01*
X108367048Y-99964798D01*
X108326561Y-100078980D01*
X108311776Y-100114676D01*
X108154763Y-100385514D01*
X107937210Y-100607464D01*
X107672099Y-100773622D01*
X107372414Y-100877086D01*
X107051137Y-100910954D01*
X106846214Y-100893881D01*
X106547767Y-100805854D01*
X106271512Y-100646260D01*
X106034099Y-100428015D01*
X105852175Y-100164035D01*
X105819542Y-100097348D01*
X105755102Y-99880773D01*
X105728872Y-99622237D01*
X105740715Y-99355265D01*
X105790493Y-99113380D01*
X105823929Y-99024532D01*
X105990979Y-98748605D01*
X106213675Y-98524275D01*
X106478550Y-98356746D01*
X106772136Y-98251222D01*
X107080965Y-98212904D01*
X107391572Y-98246997D01*
%TD*%
D11*
%TO.C,DCNTR1*%
X106930000Y-91315000D03*
X106930000Y-90170000D03*
%TD*%
%TO.C,D2*%
X101600000Y-87562500D03*
X101600000Y-86417500D03*
%TD*%
D12*
%TO.C,D7*%
X106370000Y-94488000D03*
X107515000Y-94488000D03*
%TD*%
D11*
%TO.C,D6*%
X111030000Y-88470000D03*
X111030000Y-87325000D03*
%TD*%
%TO.C,D9*%
X109840000Y-89350000D03*
X109840000Y-88205000D03*
%TD*%
%TO.C,D8*%
X104140000Y-89472500D03*
X104140000Y-88327500D03*
%TD*%
D12*
%TO.C,D1*%
X106400000Y-97282000D03*
X107545000Y-97282000D03*
%TD*%
D11*
%TO.C,D12*%
X108520000Y-90295000D03*
X108520000Y-89150000D03*
%TD*%
D13*
%TO.C,U2*%
X97877500Y-82637500D03*
D14*
X100417500Y-82637500D03*
X113117500Y-82637500D03*
X115657500Y-82637500D03*
X97877500Y-100417500D03*
X100417500Y-100417500D03*
X113117500Y-100417500D03*
X115657500Y-100417500D03*
%TD*%
D12*
%TO.C,D4*%
X106375000Y-95885000D03*
X107520000Y-95885000D03*
%TD*%
D11*
%TO.C,D11*%
X105410000Y-90245000D03*
X105410000Y-89100000D03*
%TD*%
D12*
%TO.C,D10*%
X106380000Y-92964000D03*
X107525000Y-92964000D03*
%TD*%
D11*
%TO.C,D3*%
X112250000Y-87622500D03*
X112250000Y-86477500D03*
%TD*%
%TO.C,D5*%
X102870000Y-88505000D03*
X102870000Y-87360000D03*
%TD*%
M02*
