%TF.GenerationSoftware,KiCad,Pcbnew,(6.0.7-1)-1*%
%TF.CreationDate,2022-10-05T00:05:40-06:00*%
%TF.ProjectId,FluxCapacitor,466c7578-4361-4706-9163-69746f722e6b,rev?*%
%TF.SameCoordinates,Original*%
%TF.FileFunction,Legend,Top*%
%TF.FilePolarity,Positive*%
%FSLAX46Y46*%
G04 Gerber Fmt 4.6, Leading zero omitted, Abs format (unit mm)*
G04 Created by KiCad (PCBNEW (6.0.7-1)-1) date 2022-10-05 00:05:40*
%MOMM*%
%LPD*%
G01*
G04 APERTURE LIST*
%ADD10C,0.150000*%
%ADD11C,0.010000*%
%ADD12C,0.100000*%
G04 APERTURE END LIST*
D10*
X107314683Y-90790000D02*
G75*
G03*
X107314683Y-90790000I-354683J0D01*
G01*
X107811724Y-90770000D02*
G75*
G03*
X107811724Y-90770000I-841724J0D01*
G01*
X107568982Y-90780000D02*
G75*
G03*
X107568982Y-90780000I-588982J0D01*
G01*
X107697008Y-90780000D02*
G75*
G03*
X107697008Y-90780000I-717008J0D01*
G01*
X107446905Y-90780000D02*
G75*
G03*
X107446905Y-90780000I-466905J0D01*
G01*
X107949381Y-90780000D02*
G75*
G03*
X107949381Y-90780000I-969381J0D01*
G01*
%TO.C,Ref\u002A\u002A*%
G36*
X112871000Y-86193000D02*
G01*
X112881000Y-86233000D01*
X112941000Y-86413000D01*
X113043800Y-86573400D01*
X107225145Y-90892956D01*
X107221584Y-98090946D01*
X106781276Y-98101153D01*
X106771496Y-90910997D01*
X103921592Y-88815334D01*
X103473857Y-88499459D01*
X103045706Y-88197440D01*
X102642227Y-87912863D01*
X102268503Y-87649314D01*
X101929623Y-87410376D01*
X101630670Y-87199636D01*
X101376732Y-87020679D01*
X101172895Y-86877090D01*
X101024243Y-86772455D01*
X100935863Y-86710358D01*
X100881000Y-86673000D01*
X100901000Y-86643000D01*
X100951000Y-86563000D01*
X101001000Y-86463000D01*
X101061000Y-86283000D01*
X104086544Y-88393069D01*
X104537146Y-88710455D01*
X104968106Y-89013397D01*
X105374389Y-89298389D01*
X105750964Y-89561931D01*
X106092795Y-89800519D01*
X106394849Y-90010650D01*
X106652094Y-90188822D01*
X106859494Y-90331531D01*
X107012016Y-90435274D01*
X107104628Y-90496550D01*
X107132397Y-90512646D01*
X107170360Y-90486728D01*
X107270162Y-90412667D01*
X107426804Y-90294299D01*
X107635292Y-90135460D01*
X107890628Y-89939985D01*
X108187817Y-89711709D01*
X108521861Y-89454467D01*
X108887765Y-89172095D01*
X109280532Y-88868428D01*
X109695166Y-88547302D01*
X109936152Y-88360419D01*
X110361300Y-88030875D01*
X110767709Y-87716456D01*
X111150346Y-87421020D01*
X111504182Y-87148423D01*
X111824182Y-86902523D01*
X112105317Y-86687178D01*
X112342554Y-86506243D01*
X112530862Y-86363577D01*
X112665208Y-86263037D01*
X112740561Y-86208481D01*
X112861000Y-86123000D01*
X112871000Y-86193000D01*
G37*
D11*
X112871000Y-86193000D02*
X112881000Y-86233000D01*
X112941000Y-86413000D01*
X113043800Y-86573400D01*
X107225145Y-90892956D01*
X107221584Y-98090946D01*
X106781276Y-98101153D01*
X106771496Y-90910997D01*
X103921592Y-88815334D01*
X103473857Y-88499459D01*
X103045706Y-88197440D01*
X102642227Y-87912863D01*
X102268503Y-87649314D01*
X101929623Y-87410376D01*
X101630670Y-87199636D01*
X101376732Y-87020679D01*
X101172895Y-86877090D01*
X101024243Y-86772455D01*
X100935863Y-86710358D01*
X100881000Y-86673000D01*
X100901000Y-86643000D01*
X100951000Y-86563000D01*
X101001000Y-86463000D01*
X101061000Y-86283000D01*
X104086544Y-88393069D01*
X104537146Y-88710455D01*
X104968106Y-89013397D01*
X105374389Y-89298389D01*
X105750964Y-89561931D01*
X106092795Y-89800519D01*
X106394849Y-90010650D01*
X106652094Y-90188822D01*
X106859494Y-90331531D01*
X107012016Y-90435274D01*
X107104628Y-90496550D01*
X107132397Y-90512646D01*
X107170360Y-90486728D01*
X107270162Y-90412667D01*
X107426804Y-90294299D01*
X107635292Y-90135460D01*
X107890628Y-89939985D01*
X108187817Y-89711709D01*
X108521861Y-89454467D01*
X108887765Y-89172095D01*
X109280532Y-88868428D01*
X109695166Y-88547302D01*
X109936152Y-88360419D01*
X110361300Y-88030875D01*
X110767709Y-87716456D01*
X111150346Y-87421020D01*
X111504182Y-87148423D01*
X111824182Y-86902523D01*
X112105317Y-86687178D01*
X112342554Y-86506243D01*
X112530862Y-86363577D01*
X112665208Y-86263037D01*
X112740561Y-86208481D01*
X112861000Y-86123000D01*
X112871000Y-86193000D01*
D12*
%TO.C,DCNTR1*%
X106980000Y-92007500D02*
G75*
G03*
X106980000Y-92007500I-50000J0D01*
G01*
%TO.C,D2*%
X101650000Y-88255000D02*
G75*
G03*
X101650000Y-88255000I-50000J0D01*
G01*
%TO.C,D7*%
X105727500Y-94488000D02*
G75*
G03*
X105727500Y-94488000I-50000J0D01*
G01*
%TO.C,D6*%
X111080000Y-89162500D02*
G75*
G03*
X111080000Y-89162500I-50000J0D01*
G01*
%TO.C,D9*%
X109890000Y-90042500D02*
G75*
G03*
X109890000Y-90042500I-50000J0D01*
G01*
%TO.C,D8*%
X104190000Y-90165000D02*
G75*
G03*
X104190000Y-90165000I-50000J0D01*
G01*
%TO.C,D1*%
X105757500Y-97282000D02*
G75*
G03*
X105757500Y-97282000I-50000J0D01*
G01*
%TO.C,D12*%
X108570000Y-90987500D02*
G75*
G03*
X108570000Y-90987500I-50000J0D01*
G01*
%TO.C,D4*%
X105732500Y-95885000D02*
G75*
G03*
X105732500Y-95885000I-50000J0D01*
G01*
%TO.C,D11*%
X105460000Y-90937500D02*
G75*
G03*
X105460000Y-90937500I-50000J0D01*
G01*
%TO.C,D10*%
X105737500Y-92964000D02*
G75*
G03*
X105737500Y-92964000I-50000J0D01*
G01*
%TO.C,D3*%
X112300000Y-88315000D02*
G75*
G03*
X112300000Y-88315000I-50000J0D01*
G01*
%TO.C,D5*%
X102920000Y-89197500D02*
G75*
G03*
X102920000Y-89197500I-50000J0D01*
G01*
%TD*%
M02*
