M48
; DRILL file {KiCad (6.0.7-1)-1} date Wednesday, October 05, 2022 at 12:05:43 AM
; FORMAT={-:-/ absolute / inch / decimal}
; #@! TF.CreationDate,2022-10-05T00:05:43-06:00
; #@! TF.GenerationSoftware,Kicad,Pcbnew,(6.0.7-1)-1
; #@! TF.FileFunction,Plated,1,2,PTH
FMAT,2
INCH
; #@! TA.AperFunction,Plated,PTH,ViaDrill
T1C0.0157
; #@! TA.AperFunction,Plated,PTH,ComponentDrill
T2C0.0400
%
G90
G05
T1
X3.9621Y-3.4679
X4.0Y-3.4
X4.05Y-3.44
X4.1Y-3.4775
X4.15Y-3.5079
X4.189Y-3.83
X4.1915Y-3.54
X4.2485Y-3.5428
X4.2601Y-3.6901
X4.27Y-3.77
X4.27Y-3.83
X4.3244Y-3.4726
X4.3244Y-3.5177
X4.3713Y-3.438
X4.41Y-3.3252
X4.4193Y-3.4046
T2
X3.8534Y-3.2534
X3.8534Y-3.9534
X3.9534Y-3.2534
X3.9534Y-3.9534
X4.4534Y-3.2534
X4.4534Y-3.9534
X4.5534Y-3.2534
X4.5534Y-3.9534
T0
M30
